# xmcd CD database file
#
# Track frame offsets:
#	150
#	13405
#	31285
#	51780
#	73557
#	91525
#	106965
#	127377
#	151555
#	170682
#	197172
#	228692
#	248405
#	267300
#
# Disc length: 3925 seconds
#
# Revision: 0
# Processed by: cddbd v1.5.1PL2 Copyright (c) Steve Scherf et al.
# Submitted via: CDex 1.51
#
DISCID=b90f530e
DTITLE=Various Artist - 男のソウルバラード
DYEAR=2005
DGENRE=JPop
TTITLE0=尾崎紀世彦 - また逢う日まで
TTITLE1=松崎しげる - 愛のメモリー
TTITLE2=谷村新司 - 昴−すばる−
TTITLE3=つのだ☆ひろ - メリー・ジェーン
TTITLE4=アリス - 遠くで汽笛を聞きながら
TTITLE5=堺正章 - さらば恋人
TTITLE6=森進一 - 冬のリヴィエラ
TTITLE7=泉谷しげる - 春夏秋冬
TTITLE8=A.R.B. - さらば相棒
TTITLE9=奥田民生 - イージュー★ライダー’９７
TTITLE10=加山雄三 - 海　その愛
TTITLE11=やしきたかじん - ラヴ・イズ・オーヴァー
TTITLE12=レイ・チャールズ - エリー・マイ・ラブ〜いとしのエリー
TTITLE13=CRAZY KEN BAND - マイ・ウェイ（ライブ・バージョン）
EXTD=YEAR: 2005.12.16
EXTT0=
EXTT1=
EXTT2=
EXTT3=
EXTT4=
EXTT5=
EXTT6=
EXTT7=
EXTT8=
EXTT9=
EXTT10=
EXTT11=
EXTT12=
EXTT13=
PLAYORDER=
